<svg width="183" height="42" viewBox="0 0 183 42" fill="none" xmlns="http://www.w3.org/2000/svg">
<path opacity="0.5" d="M40.4312 2.25671L30.6261 36.9917C30.5763 37.1494 30.3768 37.1967 30.2605 37.0863L23.6961 30.8583L28.6152 13.4514C28.6651 13.2937 28.5155 13.1518 28.3493 13.1991L10.0022 17.8662L3.47101 11.6697C3.35468 11.5593 3.40453 11.3701 3.57072 11.3228L40.1653 2.00444C40.3315 1.97291 40.4811 2.11481 40.4312 2.25671Z" fill="#00FFB3"/>
<path opacity="0.5" d="M23.6958 30.858L21.1697 39.8452C21.1198 40.0029 20.9204 40.0502 20.8041 39.9398L0.429428 20.6251C0.313097 20.5147 0.362953 20.3255 0.529141 20.2782L10.0019 17.8658L23.6958 30.858Z" fill="#00FFB3"/>
<path d="M28.6144 13.4511L23.6952 30.858L10.0014 17.8659L28.3485 13.1988C28.5147 13.1515 28.6643 13.2934 28.6144 13.4511Z" fill="#00FFB3"/>
<path d="M58.2739 29.5V11.5903H63.084C70.6828 11.5903 72.3714 15.7095 72.3714 20.2637C72.3714 25.9948 69.8897 29.5 63.1863 29.5H58.2739ZM63.4677 26.5577C67.1776 26.5577 68.9942 24.9714 68.9942 20.2637C68.9942 15.6072 66.5892 14.507 63.3142 14.507H61.5488V26.5577H63.4677ZM78.7582 29.5V14.507H73.5899V11.5903H87.2269V14.507H82.0587V29.5H78.7582ZM97.0017 29.5V11.5903H102.068L106.059 24.9202H106.417L110.408 11.5903H115.474V29.5H112.404V15.6072H112.097L107.799 29.5H104.703L100.405 15.6072H100.072V29.5H97.0017ZM125.816 29.807C121.185 29.807 118.345 27.095 118.345 22.7199C118.345 18.3192 121.185 15.6328 125.816 15.6328C130.422 15.6328 133.262 18.3192 133.262 22.7199C133.262 27.095 130.422 29.807 125.816 29.807ZM125.816 27.095C128.4 27.095 129.961 25.4575 129.961 22.7199C129.961 19.9823 128.4 18.3448 125.816 18.3448C123.206 18.3448 121.646 19.9823 121.646 22.7199C121.646 25.4575 123.206 27.095 125.816 27.095ZM136.027 29.5V16.2468L139.072 15.8374V20.3405H139.379C140.018 17.2958 141.886 15.6328 144.726 15.6328C147.95 15.6328 149.152 17.8587 149.152 20.7754V29.5H145.954V21.1592C145.954 19.4961 145.186 18.6007 143.498 18.6007C141.4 18.6007 139.225 19.9055 139.225 24.7155V29.5H136.027ZM159.299 29.807C153.849 29.807 151.751 26.4298 151.751 22.7966C151.751 19.1379 153.9 15.6328 159.017 15.6328C163.188 15.6328 165.772 17.8587 166.104 23.5898H155.077C155.41 26.046 157.15 27.095 159.529 27.095C161.218 27.095 162.599 26.5833 164.109 25.4831L165.49 27.837C163.674 29.1674 161.678 29.807 159.299 29.807ZM155.128 21.543H162.83C162.369 19.4706 161.141 18.3448 159.017 18.3448C156.868 18.3448 155.487 19.4961 155.128 21.543ZM170.627 36.101C167.813 36.101 166.073 33.9518 166.073 30.3443H168.99C169.015 32.4935 169.655 33.4146 170.781 33.4146C171.906 33.4146 172.725 32.4423 173.518 30.4722L173.928 29.5H172.648L167.531 15.9909H171.036L174.644 26.7112H174.9L178.533 15.9909H181.808L175.872 31.3421C174.644 34.5659 172.955 36.101 170.627 36.101Z" fill="#E1E1E6"/>
</svg>
